HIERARCHY
ROOT root
{
	OFFSET 0.000000 0.000000 0.000000
	CHANNELS 6 Xposition Yposition Zposition Zrotation Yrotation Xrotation
	JOINT lhip
	{
		OFFSET 0.058581 -0.082280 -0.017664
		CHANNELS 3 Zrotation Yrotation Xrotation
		JOINT lknee
		{
			OFFSET 0.043451 -0.386469 0.008037
			CHANNELS 3 Zrotation Yrotation Xrotation
			JOINT lankle
			{
				OFFSET -0.014790 -0.426874 -0.037428
				CHANNELS 3 Zrotation Yrotation Xrotation
				JOINT ltoe
				{
					OFFSET 0.041054 -0.060286 0.122042
					CHANNELS 3 Zrotation Yrotation Xrotation
					End Site
					{
						OFFSET 0.000000 0.000000 0.000000
					}
				}
			}
		}
	}
	JOINT rhip
	{
		OFFSET -0.060310 -0.090513 -0.013543
		CHANNELS 3 Zrotation Yrotation Xrotation
		JOINT rknee
		{
			OFFSET -0.043257 -0.383688 -0.004843
			CHANNELS 3 Zrotation Yrotation Xrotation
			JOINT rankle
			{
				OFFSET 0.019056 -0.420046 -0.034562
				CHANNELS 3 Zrotation Yrotation Xrotation
				JOINT rtoe
				{
					OFFSET -0.034840 -0.062106 0.130323
					CHANNELS 3 Zrotation Yrotation Xrotation
					End Site
					{
						OFFSET 0.000000 0.000000 0.000000
					}
				}
			}
		}
	}
	JOINT lowerback
	{
		OFFSET 0.004439 0.124404 -0.038385
		CHANNELS 3 Zrotation Yrotation Xrotation
		JOINT upperback
		{
			OFFSET 0.004488 0.137956 0.026820
			CHANNELS 3 Zrotation Yrotation Xrotation
			JOINT chest
			{
				OFFSET -0.002265 0.056032 0.002855
				CHANNELS 3 Zrotation Yrotation Xrotation
				JOINT lowerneck
				{
					OFFSET -0.013390 0.211636 -0.033468
					CHANNELS 3 Zrotation Yrotation Xrotation
					JOINT upperneck
					{
						OFFSET 0.010113 0.088937 0.050410
						CHANNELS 3 Zrotation Yrotation Xrotation
						End Site
						{
							OFFSET 0.000000 0.000000 0.000000
						}
					}
				}
				JOINT lclavicle
				{
					OFFSET 0.071702 0.114000 -0.018898
					CHANNELS 3 Zrotation Yrotation Xrotation
					JOINT lshoulder
					{
						OFFSET 0.122921 0.045205 -0.019046
						CHANNELS 3 Zrotation Yrotation Xrotation
						JOINT lelbow
						{
							OFFSET 0.255332 -0.015649 -0.022946
							CHANNELS 3 Zrotation Yrotation Xrotation
							JOINT lwrist
							{
								OFFSET 0.265709 0.012698 -0.007375
								CHANNELS 3 Zrotation Yrotation Xrotation
								End Site
								{
									OFFSET 0.000000 0.000000 0.000000
								}
							}
						}
					}
				}
				JOINT rclavicle
				{
					OFFSET -0.082954 0.112472 -0.023707
					CHANNELS 3 Zrotation Yrotation Xrotation
					JOINT rshoulder
					{
						OFFSET -0.113228 0.046853 -0.008472
						CHANNELS 3 Zrotation Yrotation Xrotation
						JOINT relbow
						{
							OFFSET -0.260127 -0.014369 -0.031269
							CHANNELS 3 Zrotation Yrotation Xrotation
							JOINT rwrist
							{
								OFFSET -0.269108 0.006794 -0.006027
								CHANNELS 3 Zrotation Yrotation Xrotation
								End Site
								{
									OFFSET 0.000000 0.000000 0.000000
								}
							}
						}
					}
				}
			}
		}
	}
}
MOTION
Frames: 10
Frame Time: 0.033333
0.190877 2.678124 1.020514 -5.465775 1.177207 89.764213 -0.500612 -0.293813 -1.032085 -3.898835 -4.652372 -0.587443 1.902799 9.634539 5.590628 0.000000 -0.000000 0.000000 1.232665 -2.676706 -1.631148 5.364494 -0.462296 0.520530 3.181158 -3.341416 -4.548498 0.000000 -0.000000 0.000000 -1.710807 1.734716 12.964283 0.780011 -1.274182 2.355701 2.788078 0.347578 -5.439810 -0.398449 -6.739051 0.588487 6.087055 -3.590633 -1.336635 -23.527288 0.294699 1.700710 -55.485257 -10.478294 3.679218 22.938648 -19.462768 -17.492656 -1.854739 -3.706331 -27.716838 20.196679 3.089776 2.988352 53.805995 3.255402 14.481787 -16.041579 29.046385 5.436634 1.800562 -1.169186 2.636551 
0.191228 2.679082 1.020291 -5.441533 1.277739 89.708742 -0.451563 -0.427286 -1.298801 -3.898885 -4.728728 -0.086024 1.579448 9.606417 5.392461 0.000000 -0.000000 0.000000 1.390714 -2.665952 -1.982381 5.447850 -0.981992 1.031766 3.101628 -3.640824 -4.065762 0.000000 -0.000000 0.000000 -1.347577 1.679074 13.536967 0.574293 -1.131577 1.984424 2.759682 0.093635 -5.261013 -0.339213 -6.553569 0.147500 6.132064 -3.394889 -1.352638 -23.481800 0.039714 1.923106 -55.468138 -10.444415 3.324007 23.320118 -20.174234 -17.931949 -2.096517 -3.357188 -28.347230 19.865415 3.153829 3.063323 54.025486 3.376059 14.486762 -15.855499 29.364587 5.625808 2.295017 -0.930482 0.872074 
0.191608 2.680056 1.020030 -5.415168 1.400936 89.779636 -0.275762 -0.329551 -1.684236 -4.014455 -4.793471 0.315585 1.423597 9.667809 5.324893 0.000000 -0.000000 0.000000 1.565567 -2.716599 -2.372066 5.537500 -1.435852 1.394093 2.786754 -3.834346 -3.513597 0.000000 -0.000000 0.000000 -1.100159 1.685536 13.943065 0.491674 -1.213155 1.741543 2.825075 -0.052645 -5.101131 -0.418634 -6.374777 -0.241724 6.298349 -3.153804 -1.499336 -23.528821 -0.269012 2.180807 -55.511819 -10.052500 3.458672 23.513501 -21.146192 -17.702657 -1.132116 -2.785300 -27.691771 19.639443 3.351953 3.127466 54.045414 3.326867 14.259060 -15.304754 29.783866 5.987345 2.155281 -0.583950 -0.648769 
0.192033 2.682025 1.019950 -5.436879 1.546894 90.308513 -0.174355 -0.473511 -2.820030 -3.918205 -4.496273 0.973688 1.711073 9.794615 6.068961 0.000000 -0.000000 0.000000 1.819754 -2.644707 -3.286696 5.587059 -1.757868 1.587186 2.321114 -4.268398 -2.580030 0.000000 -0.000000 0.000000 -0.821623 1.583501 14.145723 0.463301 -1.419776 1.204356 2.849609 -0.286508 -4.613180 -0.321298 -6.272525 -1.763373 6.545559 -3.052252 -0.972603 -23.826773 -0.586909 2.387385 -55.020401 -9.703223 3.753013 23.388420 -22.310571 -18.473235 0.060717 -2.218771 -27.343597 19.712222 3.803037 3.257532 53.661497 3.555297 14.278980 -14.476033 29.926250 5.996178 2.181620 -0.078856 -2.317396 
0.192218 2.682545 1.019964 -5.426407 1.559801 90.533309 -0.151862 -0.532691 -3.126546 -4.002339 -4.537009 1.013998 1.743616 9.821402 6.101642 0.000000 -0.000000 0.000000 1.850856 -2.634878 -3.573835 5.560137 -1.708961 1.560255 2.349160 -4.353471 -2.486195 0.000000 -0.000000 0.000000 -0.809551 1.605258 14.097661 0.495960 -1.440216 1.087252 2.885406 -0.357013 -4.515193 -0.256346 -6.284089 -1.952175 6.487379 -3.103966 -0.927660 -23.930910 -0.684319 2.444047 -54.894462 -9.502256 4.081109 23.245766 -22.850871 -18.072147 0.410768 -2.147477 -26.678117 19.719720 3.856554 3.238858 53.524144 3.541406 14.278242 -14.099726 29.949964 6.121059 2.163760 0.159046 -2.933150 
0.192625 2.683313 1.019874 -5.363514 1.617272 90.893960 -0.212412 -0.527441 -3.361532 -3.694675 -4.453558 0.552746 2.114062 9.832455 7.504808 0.000000 -0.000000 0.000000 1.915664 -2.611009 -3.984863 5.563465 -1.669772 1.446467 2.159649 -4.490730 -2.335605 0.000000 -0.000000 0.000000 -0.723283 1.581088 14.001612 0.474565 -1.451648 0.989386 2.969972 -0.430274 -4.455758 -0.393109 -6.390804 -1.740836 6.699875 -3.083272 -1.032381 -23.825563 -0.738125 2.601785 -54.864789 -9.205257 4.515630 23.356576 -23.893253 -18.550803 1.450102 -1.531127 -27.384770 19.751907 3.857595 3.408417 53.311369 3.544209 14.107457 -13.405529 30.033956 6.269908 1.888608 0.580277 -4.093317 
0.193283 2.684129 1.019716 -5.301608 1.626911 91.155710 -0.221120 -0.493631 -3.711975 -3.728821 -4.542773 0.542724 2.020488 9.762010 7.389235 0.000000 -0.000000 0.000000 1.872955 -2.627593 -4.360203 5.588929 -1.805525 1.467442 2.301238 -4.421969 -2.330528 0.000000 -0.000000 0.000000 -0.626035 1.593308 14.106401 0.463057 -1.481953 0.776479 2.994047 -0.500579 -4.365242 -0.461942 -6.325748 -1.785459 6.727849 -2.985200 -0.958249 -23.779182 -0.924966 2.515758 -55.106240 -9.427651 4.803276 23.377601 -23.660491 -17.685295 1.709658 -1.685236 -26.124944 19.696958 3.918587 3.341479 53.204395 3.360192 13.955236 -12.790416 30.021762 6.591734 2.305267 1.164219 -5.366012 
0.193898 2.684247 1.019689 -5.267795 1.655467 91.282737 -0.218063 -0.412443 -3.579687 -3.688780 -4.576458 0.046977 2.031857 9.741925 7.486652 0.000000 -0.000000 0.000000 1.791193 -2.663686 -4.438092 5.701354 -1.857077 1.434295 2.306120 -4.308747 -2.068840 0.000000 -0.000000 0.000000 -0.504966 1.550062 14.093072 0.448150 -1.470463 0.998214 2.954495 -0.504976 -4.531978 -0.473115 -6.320812 -1.425426 6.855395 -3.043703 -1.137709 -23.733028 -0.859351 2.615043 -55.099679 -9.614049 4.842808 23.492753 -24.070897 -17.606808 0.969185 -2.026017 -26.755265 19.730200 3.932511 3.533647 53.088867 3.397289 13.798783 -12.376866 30.050025 6.767029 2.962468 1.751329 -6.395556 
0.194192 2.684682 1.019582 -5.333308 1.655647 91.439477 -0.242906 -0.424718 -3.565297 -3.664541 -4.613317 -0.345627 2.098599 9.766383 7.767037 0.000000 -0.000000 0.000000 1.823138 -2.403100 -4.701839 5.623458 -1.962550 1.438577 2.248359 -4.445478 -2.134571 0.000000 -0.000000 0.000000 -0.487044 1.483604 14.114147 0.418629 -1.374811 0.978410 2.937154 -0.567460 -4.458425 -0.371602 -6.309884 -1.597963 6.910183 -3.073060 -1.000435 -23.830699 -0.728587 2.611271 -54.937361 -9.733179 4.948944 23.734609 -24.338135 -18.077157 1.108541 -2.211230 -27.157422 19.837141 3.977021 3.487327 52.939881 3.542703 13.926437 -11.796662 29.852968 6.896383 3.016405 2.511287 -7.601480 
0.194710 2.684755 1.019745 -5.306940 1.546193 91.481411 -0.272037 -0.281442 -3.487240 -3.857951 -4.655902 -0.465523 1.883859 9.735009 6.571754 0.000000 -0.000000 0.000000 1.656458 -2.386749 -4.750190 5.608622 -2.036190 1.423512 2.423122 -4.379283 -2.173669 0.000000 -0.000000 0.000000 -0.575488 1.432739 14.259430 0.414875 -1.384191 0.961151 2.924828 -0.623050 -4.484376 -0.265897 -6.341001 -1.728945 6.863527 -3.140158 -0.833540 -23.924088 -0.736081 2.669233 -54.784334 -9.833885 4.984138 23.883900 -24.326559 -18.432540 0.783395 -2.746964 -26.892469 19.880280 4.044475 3.393930 52.857690 3.602285 14.025941 -11.271321 29.701080 6.904015 3.565816 3.156860 -8.329876 
